<?xml version="1.0" encoding="UTF-8" standalone="no"?>
<svg
   viewBox="0 0 1122.5196 793.70083"
   width="1122.5197"
   height="793.70081"
   version="1.1"
   id="svg236"
   sodipodi:docname="laser_cut.svg"
   xml:space="preserve"
   inkscape:version="1.4 (e7c3feb100, 2024-10-09)"
   inkscape:export-filename="jno.dxf.svg"
   inkscape:export-xdpi="96"
   inkscape:export-ydpi="96"
   xmlns:inkscape="http://www.inkscape.org/namespaces/inkscape"
   xmlns:sodipodi="http://sodipodi.sourceforge.net/DTD/sodipodi-0.dtd"
   xmlns="http://www.w3.org/2000/svg"
   xmlns:svg="http://www.w3.org/2000/svg"><sodipodi:namedview
     id="namedview236"
     pagecolor="#ffffff"
     bordercolor="#000000"
     borderopacity="0.25"
     inkscape:showpageshadow="2"
     inkscape:pageopacity="0.0"
     inkscape:pagecheckerboard="0"
     inkscape:deskcolor="#d1d1d1"
     showgrid="false"
     inkscape:zoom="3.0544674"
     inkscape:cx="523.98661"
     inkscape:cy="523.82292"
     inkscape:window-width="1920"
     inkscape:window-height="1011"
     inkscape:window-x="0"
     inkscape:window-y="0"
     inkscape:window-maximized="1"
     inkscape:current-layer="g236" /><desc
     id="desc1">combo.dxf - scale = 1.000000, origin = (0.000000, 0.000000), method = manual</desc><defs
     id="defs4"><rect
       x="597.15813"
       y="-560.49052"
       width="514.65602"
       height="247.50633"
       id="rect239" /><marker
       id="DistanceX"
       orient="auto"
       refX="0"
       refY="0"
       style="overflow:visible"><path
         d="M 3,-3 -3,3 M 0,-5 V 5"
         style="stroke:#000000;stroke-width:0.5"
         id="path1" /></marker><pattern
       id="Hatch"
       patternUnits="userSpaceOnUse"
       width="8"
       height="8"
       x="0"
       y="0"><path
         d="M8 4 l-4,4"
         stroke="#000000"
         stroke-width="0.25"
         linecap="square"
         id="path2" /><path
         d="M6 2 l-4,4"
         stroke="#000000"
         stroke-width="0.25"
         linecap="square"
         id="path3" /><path
         d="M4 0 l-4,4"
         stroke="#000000"
         stroke-width="0.25"
         linecap="square"
         id="path4" /></pattern><marker
       id="DistanceX-5"
       orient="auto"
       refX="0"
       refY="0"
       style="overflow:visible"><path
         d="M 3,-3 -3,3 M 0,-5 V 5"
         style="stroke:#000000;stroke-width:0.5"
         id="path1-6" /></marker><pattern
       id="Hatch-2"
       patternUnits="userSpaceOnUse"
       width="8"
       height="8"
       x="0"
       y="0"><path
         d="M8 4 l-4,4"
         stroke="#000000"
         stroke-width="0.25"
         linecap="square"
         id="path2-9" /><path
         d="M6 2 l-4,4"
         stroke="#000000"
         stroke-width="0.25"
         linecap="square"
         id="path3-1" /><path
         d="M4 0 l-4,4"
         stroke="#000000"
         stroke-width="0.25"
         linecap="square"
         id="path4-2" /></pattern></defs><g
     inkscape:groupmode="layer"
     inkscape:label="0"
     id="g236"><path
       style="font-size:53.3333px;line-height:49.0259px;font-family:Bitwise;-inkscape-font-specification:Bitwise;text-align:center;white-space:pre;stroke-width:1.02131"
       d="m 469.74705,503.62604 -4.82796,-8.85174 q -0.051,-0.0936 -0.0486,-0.21637 0.0158,-0.13006 0.0596,-0.24067 0.0571,-0.11791 0.14223,-0.21637 0.0778,-0.11183 0.18476,-0.17017 l 3.7172,-2.02745 q 0.10696,-0.0584 0.23581,-0.0766 0.13493,-0.0389 0.25892,-0.002 0.13006,0.0158 0.24189,0.0936 0.1252,0.0705 0.20542,0.21759 -0.0802,-0.14708 -0.0851,-0.28323 0.009,-0.14343 0.0523,-0.25404 0.0498,-0.13128 0.14223,-0.21637 0.0851,-0.0985 0.19206,-0.1568 l 3.39628,-1.85242 q 0.0802,-0.0438 0.203,-0.0413 0.11548,-0.0109 0.2188,0.0195 0.11669,0.0231 0.20785,0.0948 0.0973,0.0511 0.1483,0.14465 l 4.83525,8.8651 q 0.0219,0.0401 0.0377,0.1009 0.0158,0.0608 0.0182,0.12885 -0.005,0.0547 -0.0231,0.11669 -0.0122,0.0413 -0.0523,0.0632 l -0.53485,0.29172 q -0.0401,0.0219 -0.0875,0.0304 -0.0547,-0.005 -0.11669,-0.0231 -0.062,-0.0182 -0.11062,-0.0438 -0.0353,-0.0328 -0.0571,-0.0729 l -4.39038,-8.04947 q -0.0292,-0.0535 -0.0717,-0.0997 -0.0426,-0.0462 -0.10454,-0.0644 -0.0559,-0.0389 -0.11061,-0.0438 -0.0547,-0.005 -0.10819,0.0243 l -2.28647,1.2471 q -0.0936,0.051 -0.15803,0.15559 -0.0584,0.0839 -0.0948,0.20786 -0.0231,0.11669 -0.005,0.24554 0.0109,0.11547 0.062,0.20907 l 4.22993,7.7553 q 0.0292,0.0535 0.0316,0.12155 0.009,0.0474 0.0109,0.11548 -0.005,0.0547 -0.0304,0.10332 -0.0255,0.0486 -0.079,0.0778 l -0.54822,0.29902 q -0.0535,0.0292 -0.13493,0.0389 -0.0681,0.002 -0.14343,-0.009 -0.0827,-0.0243 -0.13857,-0.0632 -0.0559,-0.0389 -0.0851,-0.0924 l -4.23723,-7.76866 q -0.0438,-0.0802 -0.14829,-0.14466 -0.0912,-0.0717 -0.20178,-0.11548 -0.11061,-0.0438 -0.22609,-0.0328 -0.1094,-0.01 -0.203,0.0413 l -2.43356,1.32733 q -0.0668,0.0365 -0.10575,0.0924 -0.0389,0.0559 -0.0632,0.13858 -0.0109,0.0754 -0.0146,0.16409 0.002,0.0681 0.0389,0.13493 l 1.25439,2.29985 q 0.0729,0.13371 0.17868,0.23217 0.0985,0.0851 0.21758,0.17626 0.11183,0.0778 0.2577,0.15438 0.13857,0.0632 0.26377,0.13372 0.13857,0.0632 0.27106,0.14708 0.13857,0.0632 0.25769,0.15439 0.12521,0.0705 0.23095,0.16896 0.0985,0.0851 0.17139,0.21881 l 2.05662,3.77067 q 0.0365,0.0669 0.0328,0.1556 -0.0109,0.0754 -0.0353,0.15802 -0.0316,0.0693 -0.0973,0.13978 -0.0523,0.0632 -0.10575,0.0924 l -1.28364,0.70013 q -0.0535,0.0292 -0.12155,0.0316 -0.0681,0.002 -0.14344,-0.009 -0.0693,-0.0316 -0.1252,-0.0705 -0.0559,-0.0389 -0.0851,-0.0924 z m 8.66464,-9.49689 q -0.0583,-0.10697 -0.0559,-0.22974 0.002,-0.12277 0.0462,-0.23338 0.0498,-0.13128 0.12156,-0.22245 0.0851,-0.0985 0.17869,-0.1495 l 4.0381,-2.20249 q 0.0535,-0.0292 0.0717,-0.0912 0.0182,-0.062 -0.0109,-0.11548 l -0.43028,-0.7889 q -0.0292,-0.0535 -0.11791,-0.0571 -0.096,-0.017 -0.14951,0.0122 l -4.29216,2.34105 q -0.0401,0.0219 -0.10089,0.0377 -0.0474,0.009 -0.10211,0.004 -0.062,-0.0182 -0.10332,-0.0304 -0.0486,-0.0255 -0.0705,-0.0656 l -0.34277,-0.62844 q -0.0219,-0.0401 -0.017,-0.0948 -0.002,-0.0681 0.0231,-0.11669 0.0182,-0.062 0.0571,-0.11791 0.0389,-0.0559 0.079,-0.0778 l 5.08106,-2.77133 q 0.0802,-0.0438 0.18962,-0.034 0.11548,-0.0109 0.22609,0.0328 0.11669,0.0231 0.20786,0.0948 0.0839,0.0584 0.12763,0.13857 l 2.5963,4.76015 q 0.0292,0.0535 0.0717,0.0997 0.0486,0.0255 0.0972,0.0511 0.0486,0.0255 0.09,0.0377 0.0474,-0.008 0.10089,-0.0377 l 0.33428,-0.18233 q 0.0401,-0.0219 0.0948,-0.017 0.0608,-0.0158 0.12277,0.002 0.0547,0.005 0.10333,0.0304 0.0486,0.0255 0.0705,0.0656 l 0.35006,0.64182 q 0.0292,0.0535 0.0182,0.12885 -0.005,0.0547 -0.0365,0.12398 -0.0316,0.0693 -0.0839,0.1325 -0.0462,0.0426 -0.0997,0.0717 l -5.72287,3.1214 q -0.0936,0.0511 -0.22245,0.0693 -0.13614,0.005 -0.2662,-0.0109 -0.12399,-0.0365 -0.22852,-0.10089 -0.11184,-0.0778 -0.16289,-0.1714 z m 2.46637,-0.59921 q -0.0802,0.0438 -0.11062,0.14708 -0.0243,0.0827 0.0194,0.16288 l 0.99914,1.83186 q 0.0438,0.0802 0.13371,0.11791 0.096,0.017 0.17625,-0.0267 l 2.38008,-1.29815 q 0.0802,-0.0438 0.10454,-0.12642 0.0304,-0.10332 -0.0134,-0.18354 l -0.99914,-1.83186 q -0.0438,-0.0802 -0.13979,-0.0972 -0.0899,-0.0377 -0.17017,0.006 z m 3.44863,-5.54161 q -0.12398,-0.22731 -0.0814,-0.37196 0.0486,-0.16531 0.32942,-0.31846 l 5.05432,-2.75676 q 0.14708,-0.0802 0.26863,-0.11182 0.11427,-0.045 0.21029,-0.028 0.10211,-0.004 0.1799,0.0754 0.0839,0.0584 0.16288,0.1714 l 3.28793,5.99637 q 0.0438,0.0802 0.0462,0.1483 0.008,0.0474 0.01,0.0814 -0.006,0.0207 -0.0255,0.0486 -0.0134,0.007 -0.0267,0.0146 l -0.85576,0.46675 q -0.0267,0.0146 -0.0741,0.0231 -0.0474,0.009 -0.1021,0.004 -0.0486,-0.0255 -0.0899,-0.0377 -0.0353,-0.0328 -0.0571,-0.0729 l -2.81509,-5.16128 q -0.0438,-0.0802 -0.079,-0.11305 -0.0292,-0.0535 -0.0632,-0.0523 -0.028,-0.0195 -0.0681,0.002 -0.034,0.001 -0.0875,0.0304 l -3.3428,1.82325 q -0.0802,0.0438 -0.11305,0.079 -0.0267,0.0146 -0.0389,0.0559 -0.006,0.0207 0.0158,0.0608 0.0219,0.0401 0.0511,0.0936 l 0.80953,1.4842 q 0.0437,0.0802 0.12155,0.15924 0.0705,0.0656 0.16774,0.1167 0.0972,0.0511 0.19448,0.1021 0.10332,0.0304 0.21394,0.0742 0.10332,0.0304 0.20056,0.0814 0.10332,0.0304 0.1872,0.0887 0.0972,0.0511 0.16774,0.1167 0.0839,0.0584 0.13492,0.15195 l 1.33462,2.44693 q 0.0219,0.0401 0.017,0.0948 10e-4,0.034 -0.017,0.096 -0.0122,0.0413 -0.045,0.0766 -0.0195,0.028 -0.0596,0.0498 l -1.55106,0.84598 q -0.0267,0.0146 -0.0742,0.0231 -0.034,10e-4 -0.0754,-0.0109 -0.0413,-0.0122 -0.0693,-0.0316 -0.0353,-0.0328 -0.0571,-0.0729 z m 6.86436,-6.84946 0.66856,-0.36465 q 0.12034,-0.0656 0.24433,-0.0292 0.12398,0.0365 0.18233,0.14344 l 0.9335,1.71151 1.45746,-0.79493 q 0.0535,-0.0292 0.12885,-0.0182 0.0681,-0.002 0.13735,0.0292 0.062,0.0182 0.11791,0.0571 0.0559,0.0389 0.0851,0.0924 l 0.76576,1.40398 q 0.0219,0.0401 0.0243,0.10818 0.008,0.0474 -0.01,0.1094 -0.0122,0.0413 -0.0377,0.0899 -0.0255,0.0486 -0.0656,0.0705 l -1.52432,0.8314 1.85971,3.40966 q 0.0146,0.0267 0.0498,0.0596 0.0353,0.0328 0.0839,0.0583 0.0547,0.005 0.096,0.017 0.0474,-0.009 0.0875,-0.0304 l 0.72204,-0.39382 q 0.0401,-0.0219 0.0948,-0.017 0.0474,-0.009 0.096,0.017 0.0547,0.005 0.0972,0.051 0.0486,0.0255 0.0705,0.0656 l 0.28442,0.52148 q 0.0656,0.12034 0.0425,0.23703 -0.0231,0.1167 -0.13007,0.17504 l -1.85859,1.01372 q -0.10697,0.0583 -0.23096,0.0219 -0.12398,-0.0365 -0.18233,-0.14344 l -2.88073,-5.28162 -0.54822,0.29901 q -0.0401,0.0219 -0.0875,0.0304 -0.034,10e-4 -0.0887,-0.004 -0.0486,-0.0255 -0.09,-0.0377 -0.0352,-0.0328 -0.0571,-0.0729 l -0.38653,-0.70868 q -0.0146,-0.0267 -0.0158,-0.0608 -0.009,-0.0474 -0.01,-0.0814 0.0122,-0.0413 0.0316,-0.0693 0.0255,-0.0486 0.0523,-0.0632 l 0.6017,-0.32819 -0.9335,-1.71151 q -0.0583,-0.10697 -0.0219,-0.23095 0.0365,-0.12399 0.14344,-0.18233 z m 6.24786,2.61236 q -0.0583,-0.10698 -0.0559,-0.22974 0.002,-0.12278 0.0462,-0.23339 0.0498,-0.13128 0.12156,-0.22244 0.0851,-0.0985 0.17869,-0.14951 l 4.0381,-2.20248 q 0.0535,-0.0292 0.0717,-0.0912 0.0182,-0.062 -0.0109,-0.11548 l -0.43029,-0.7889 q -0.0292,-0.0535 -0.1179,-0.0571 -0.096,-0.017 -0.14952,0.0122 l -4.29215,2.34105 q -0.0401,0.0219 -0.1009,0.0377 -0.0474,0.009 -0.1021,0.004 -0.062,-0.0182 -0.10332,-0.0304 -0.0486,-0.0255 -0.0705,-0.0656 l -0.34277,-0.62845 q -0.0219,-0.0401 -0.017,-0.0948 -0.002,-0.0681 0.0231,-0.11669 0.0182,-0.062 0.0571,-0.11791 0.0389,-0.0559 0.079,-0.0778 l 5.08105,-2.77134 q 0.0802,-0.0438 0.18963,-0.034 0.11548,-0.0109 0.22609,0.0328 0.11669,0.0231 0.20785,0.0948 0.0839,0.0584 0.12763,0.13858 l 2.59631,4.76014 q 0.0292,0.0535 0.0717,0.0997 0.0486,0.0255 0.0972,0.0511 0.0486,0.0255 0.0899,0.0377 0.0474,-0.009 0.10089,-0.0377 l 0.33429,-0.18232 q 0.0401,-0.0219 0.0948,-0.017 0.0608,-0.0158 0.12277,0.002 0.0547,0.005 0.10332,0.0304 0.0486,0.0255 0.0705,0.0656 l 0.35006,0.64181 q 0.0292,0.0535 0.0182,0.12885 -0.005,0.0547 -0.0365,0.12399 -0.0316,0.0693 -0.0839,0.13249 -0.0462,0.0426 -0.0997,0.0717 l -5.72288,3.12141 q -0.0936,0.0511 -0.22245,0.0693 -0.13614,0.005 -0.26621,-0.011 -0.12398,-0.0365 -0.22852,-0.10089 -0.11182,-0.0778 -0.16287,-0.1714 z m 2.46636,-0.59922 q -0.0802,0.0438 -0.11062,0.14708 -0.0243,0.0827 0.0195,0.16289 l 0.99914,1.83185 q 0.0438,0.0802 0.13371,0.11791 0.096,0.017 0.17625,-0.0267 l 2.38008,-1.29815 q 0.0802,-0.0438 0.10454,-0.12641 0.0304,-0.10332 -0.0134,-0.18355 l -0.99914,-1.83185 q -0.0438,-0.0802 -0.13979,-0.0972 -0.09,-0.0377 -0.17017,0.006 z m 3.52643,-5.46259 q -0.0511,-0.0936 -0.0547,-0.19571 0.002,-0.12277 0.0462,-0.23338 0.0365,-0.12399 0.10819,-0.21515 0.0644,-0.10454 0.15803,-0.15559 l 3.99799,-2.1806 q 0.0802,-0.0438 0.18233,-0.0474 0.10211,-0.004 0.20543,0.0267 0.1094,0.01 0.19327,0.0681 0.0839,0.0584 0.12763,0.13857 l 0.69283,1.27027 q 0.0292,0.0535 0.045,0.11426 0.0158,0.0608 0.0182,0.12885 -0.005,0.0547 -0.0304,0.10332 -0.0255,0.0486 -0.079,0.0778 l -0.78891,0.43029 q -0.0401,0.0219 -0.10089,0.0377 -0.0547,-0.005 -0.1094,-0.01 -0.0547,-0.005 -0.10332,-0.0304 -0.0353,-0.0328 -0.0571,-0.0729 l -0.34277,-0.62845 q -0.0292,-0.0535 -0.11791,-0.0571 -0.0827,-0.0243 -0.14951,0.0121 l -2.16614,1.18146 q -0.0401,0.0219 -0.0523,0.0632 -0.0194,0.028 -0.0316,0.0693 10e-4,0.034 0.01,0.0814 0.008,0.0474 0.0231,0.0741 l 0.50322,0.92262 q 0.0656,0.12034 0.15801,0.22609 0.0851,0.0924 0.20421,0.18355 0.11183,0.0778 0.24432,0.16168 0.1252,0.0705 0.25769,0.15438 0.1252,0.0705 0.2504,0.14101 0.1252,0.0705 0.23095,0.16896 0.11183,0.0778 0.20421,0.18355 0.10575,0.0985 0.17139,0.21881 l 1.26898,2.32659 q 0.0292,0.0535 0.0255,0.14222 0.002,0.0681 -0.0219,0.15072 -0.0182,0.062 -0.0632,0.13857 -0.0389,0.0559 -0.10576,0.0924 l -1.27026,0.69284 q -0.0669,0.0365 -0.15559,0.0328 -0.0754,-0.0109 -0.15802,-0.0353 -0.0693,-0.0316 -0.13249,-0.0839 -0.0632,-0.0523 -0.0997,-0.11913 z m 6.84356,-0.93947 q -0.0583,-0.10697 -0.0559,-0.22974 0.002,-0.12277 0.0462,-0.23338 0.0498,-0.13128 0.12156,-0.22244 0.0851,-0.0985 0.17869,-0.14951 l 4.0381,-2.20249 q 0.0535,-0.0292 0.0717,-0.0912 0.0182,-0.062 -0.0109,-0.11548 l -0.43029,-0.7889 q -0.0292,-0.0535 -0.1179,-0.0571 -0.096,-0.017 -0.14952,0.0121 l -4.29215,2.34105 q -0.0401,0.0219 -0.10089,0.0377 -0.0474,0.009 -0.10211,0.004 -0.062,-0.0182 -0.10332,-0.0304 -0.0486,-0.0255 -0.0705,-0.0656 l -0.34277,-0.62845 q -0.0219,-0.0401 -0.017,-0.0948 -0.002,-0.0681 0.0231,-0.11669 0.0182,-0.062 0.0571,-0.11791 0.0389,-0.0559 0.079,-0.0778 l 5.08105,-2.77134 q 0.0802,-0.0438 0.18963,-0.034 0.11547,-0.0109 0.22609,0.0328 0.11669,0.0231 0.20786,0.0948 0.0839,0.0584 0.12763,0.13858 l 2.5963,4.76014 q 0.0292,0.0535 0.0717,0.0997 0.0486,0.0255 0.0972,0.051 0.0486,0.0255 0.09,0.0377 0.0474,-0.009 0.1009,-0.0377 l 0.33428,-0.18232 q 0.0401,-0.0219 0.0948,-0.017 0.0608,-0.0158 0.12277,0.002 0.0547,0.005 0.10332,0.0304 0.0486,0.0255 0.0705,0.0656 l 0.35006,0.64181 q 0.0292,0.0535 0.0182,0.12885 -0.005,0.0547 -0.0365,0.12399 -0.0316,0.0693 -0.0839,0.13249 -0.0462,0.0426 -0.0997,0.0717 l -5.72288,3.1214 q -0.0936,0.051 -0.22244,0.0693 -0.13614,0.005 -0.26621,-0.0109 -0.12398,-0.0365 -0.22852,-0.1009 -0.11183,-0.0778 -0.16288,-0.17139 z m 2.46636,-0.59921 q -0.0802,0.0438 -0.11062,0.14708 -0.0243,0.0827 0.0195,0.16289 l 0.99914,1.83185 q 0.0438,0.0802 0.13371,0.11791 0.096,0.017 0.17625,-0.0267 l 2.38008,-1.29815 q 0.0802,-0.0438 0.10454,-0.12641 0.0304,-0.10333 -0.0134,-0.18355 l -0.99914,-1.83186 q -0.0438,-0.0802 -0.13979,-0.0972 -0.0899,-0.0377 -0.17017,0.006 z m 3.3672,-5.72272 q -0.0219,-0.0401 -0.0231,-0.0742 -0.009,-0.0474 0.004,-0.0887 0.005,-0.0547 0.017,-0.096 0.0122,-0.0413 0.0523,-0.0632 l 0.77553,-0.42299 q 0.0401,-0.0219 0.0814,-0.01 0.0547,0.005 0.096,0.017 0.0413,0.0122 0.0766,0.045 0.0486,0.0255 0.0705,0.0657 l 2.76404,5.06768 q 0.0219,0.0401 0.0778,0.079 0.0486,0.0255 0.11061,0.0438 0.0681,-0.002 0.13614,-0.005 0.0608,-0.0158 0.11427,-0.045 l 3.16897,-1.72844 q 0.0267,-0.0146 0.0596,-0.0498 0.0389,-0.0559 0.0511,-0.0973 0.0255,-0.0486 0.0377,-0.0899 0.005,-0.0547 -0.017,-0.0948 l -2.78593,-5.1078 q -0.0219,-0.0401 -0.0304,-0.0875 -0.002,-0.0681 0.01,-0.1094 0.0182,-0.062 0.0511,-0.0972 0.0389,-0.0559 0.079,-0.0778 l 0.6953,-0.37924 q 0.0535,-0.0292 0.10818,-0.0243 0.0474,-0.008 0.096,0.017 0.0547,0.005 0.11061,0.0438 0.0486,0.0255 0.0705,0.0656 l 4.94464,9.06567 q 0.0292,0.0535 0.0316,0.12155 0.002,0.0681 -0.0158,0.13007 -0.0109,0.0754 -0.0498,0.13128 -0.0316,0.0693 -0.0851,0.0985 l -1.2569,0.68554 q -0.0535,0.0292 -0.12155,0.0316 -0.0681,0.002 -0.14344,-0.009 -0.0754,-0.0109 -0.13127,-0.0498 -0.0559,-0.0389 -0.0851,-0.0924 l -1.32733,-2.43356 q -0.0292,-0.0535 -0.0851,-0.0924 -0.0486,-0.0255 -0.12398,-0.0365 -0.0547,-0.005 -0.12277,-0.002 -0.0474,0.009 -0.1009,0.0377 l -3.20909,1.75032 q -0.10697,0.0583 -0.24919,0.0839 -0.14222,0.0255 -0.28565,0.017 -0.13736,-0.0292 -0.25526,-0.0863 -0.11791,-0.0571 -0.17626,-0.16411 z m -36.60606,45.0886 -4.82796,-8.85174 q -0.051,-0.0936 -0.0486,-0.21637 0.0158,-0.13006 0.0596,-0.24067 0.0571,-0.11791 0.14222,-0.21637 0.0778,-0.11183 0.18477,-0.17017 l 3.71719,-2.02745 q 0.10697,-0.0584 0.23582,-0.0766 0.13493,-0.0389 0.25891,-0.002 0.13006,0.0158 0.24189,0.0936 0.1252,0.0705 0.20542,0.21759 -0.0802,-0.14708 -0.0851,-0.28323 0.008,-0.14343 0.0523,-0.25404 0.0498,-0.13128 0.14222,-0.21637 0.0851,-0.0985 0.19206,-0.1568 l 3.39629,-1.85242 q 0.0802,-0.0438 0.203,-0.0413 0.11547,-0.0109 0.21879,0.0195 0.1167,0.0231 0.20786,0.0948 0.0972,0.0511 0.14829,0.14465 l 4.83526,8.86511 q 0.0219,0.0401 0.0377,0.10089 0.0158,0.0608 0.0182,0.12885 -0.005,0.0547 -0.0231,0.11669 -0.0121,0.0413 -0.0523,0.0632 l -0.53484,0.29172 q -0.0401,0.0219 -0.0875,0.0304 -0.0547,-0.005 -0.11669,-0.0231 -0.062,-0.0182 -0.11061,-0.0438 -0.0353,-0.0328 -0.0571,-0.0729 l -4.39039,-8.04946 q -0.0292,-0.0535 -0.0717,-0.0997 -0.0426,-0.0462 -0.10454,-0.0644 -0.0559,-0.0389 -0.11061,-0.0438 -0.0547,-0.005 -0.10819,0.0243 l -2.28647,1.2471 q -0.0936,0.051 -0.15803,0.15559 -0.0584,0.0839 -0.0948,0.20786 -0.0231,0.11669 -0.005,0.24554 0.0109,0.11548 0.062,0.20907 l 4.22994,7.7553 q 0.0292,0.0535 0.0316,0.12156 0.009,0.0474 0.0109,0.11547 -0.005,0.0547 -0.0304,0.10332 -0.0255,0.0486 -0.079,0.0778 l -0.54821,0.29901 q -0.0535,0.0292 -0.13493,0.0389 -0.0681,0.002 -0.14344,-0.009 -0.0827,-0.0243 -0.13857,-0.0632 -0.0559,-0.0389 -0.0851,-0.0924 l -4.23723,-7.76867 q -0.0438,-0.0802 -0.1483,-0.14465 -0.0912,-0.0717 -0.20177,-0.11549 -0.11062,-0.0438 -0.22609,-0.0328 -0.1094,-0.01 -0.203,0.0413 l -2.43356,1.32733 q -0.0669,0.0365 -0.10576,0.0924 -0.0389,0.0559 -0.0632,0.13857 -0.0109,0.0754 -0.0146,0.1641 0.002,0.0681 0.0389,0.13492 l 1.25439,2.29985 q 0.0729,0.13371 0.17868,0.23217 0.0985,0.0851 0.21758,0.17626 0.11183,0.0778 0.2577,0.15438 0.13857,0.0632 0.26377,0.13372 0.13857,0.0632 0.27106,0.14709 0.13857,0.0632 0.25769,0.15438 0.1252,0.0705 0.23095,0.16896 0.0985,0.0851 0.17139,0.21881 l 2.05662,3.77067 q 0.0365,0.0669 0.0328,0.1556 -0.0109,0.0754 -0.0353,0.15802 -0.0316,0.0693 -0.0972,0.13978 -0.0523,0.0632 -0.10576,0.0924 l -1.28363,0.70013 q -0.0535,0.0292 -0.12156,0.0316 -0.0681,0.002 -0.14343,-0.009 -0.0693,-0.0316 -0.1252,-0.0705 -0.0559,-0.0389 -0.0851,-0.0924 z m 7.41025,-11.98758 q -0.0146,-0.0267 -0.0365,-0.0668 -0.009,-0.0474 0.004,-0.0887 0.005,-0.0547 0.0243,-0.0827 0.0121,-0.0413 0.0389,-0.0559 l 0.98947,-0.53968 q 0.0535,-0.0292 0.14343,0.009 0.0827,0.0243 0.11183,0.0778 l 1.26168,2.31322 q 0.0438,0.0802 0.11426,0.14586 0.0705,0.0656 0.17504,0.13007 0.0972,0.0511 0.20178,0.11548 0.11061,0.0438 0.23581,0.11427 0.11791,0.0571 0.2504,0.14101 0.1252,0.0705 0.23825,0.18234 0.12641,0.10454 0.24067,0.25041 0.12033,0.1252 0.22244,0.3124 l 0.66366,1.21678 q 0.0219,0.0401 0.0839,0.0583 0.0754,0.0109 0.11548,-0.0109 l 2.6475,-1.44402 q 0.0535,-0.0292 0.0778,-0.11182 0.0243,-0.0827 -0.005,-0.13615 l -2.85886,-5.24151 q -0.0146,-0.0267 -0.0231,-0.0742 -0.008,-0.0474 0.004,-0.0887 0.0182,-0.062 0.0377,-0.0899 0.0255,-0.0486 0.0656,-0.0705 l 0.82901,-0.45217 q 0.0267,-0.0146 0.0681,-0.002 0.034,-10e-4 0.0754,0.0109 0.0413,0.0122 0.0766,0.045 0.028,0.0195 0.0425,0.0462 l 3.38395,6.20424 q 0.0292,0.0535 0.0182,0.12885 -0.005,0.0547 -0.0365,0.12398 -0.0182,0.062 -0.0705,0.1252 -0.0462,0.0426 -0.0997,0.0717 l -5.41533,2.95366 q -0.0669,0.0365 -0.14101,0.0596 -0.0814,0.01 -0.17018,0.006 -0.0754,-0.0109 -0.13735,-0.0292 -0.0559,-0.0389 -0.0924,-0.10575 z m 6.94701,-6.6343 0.66856,-0.36465 q 0.12034,-0.0656 0.24433,-0.0292 0.12398,0.0365 0.18233,0.14343 l 0.9335,1.71152 1.45746,-0.79494 q 0.0535,-0.0292 0.12885,-0.0182 0.0681,-0.002 0.13735,0.0292 0.062,0.0182 0.11791,0.0571 0.0559,0.0389 0.0851,0.0924 l 0.76576,1.40397 q 0.0219,0.0401 0.0243,0.10819 0.008,0.0474 -0.01,0.1094 -0.0122,0.0413 -0.0377,0.09 -0.0255,0.0486 -0.0656,0.0705 l -1.52432,0.8314 1.85971,3.40965 q 0.0146,0.0267 0.0498,0.0596 0.0353,0.0328 0.0839,0.0584 0.0547,0.005 0.096,0.017 0.0474,-0.009 0.0875,-0.0304 l 0.72204,-0.39382 q 0.0401,-0.0219 0.0948,-0.017 0.0474,-0.008 0.096,0.017 0.0547,0.005 0.0972,0.0511 0.0486,0.0255 0.0705,0.0656 l 0.28442,0.52148 q 0.0656,0.12034 0.0425,0.23703 -0.0231,0.11669 -0.13007,0.17504 l -1.85859,1.01372 q -0.10697,0.0583 -0.23096,0.0219 -0.12398,-0.0365 -0.18233,-0.14344 l -2.88073,-5.28163 -0.54822,0.29902 q -0.0401,0.0219 -0.0875,0.0304 -0.034,10e-4 -0.0887,-0.004 -0.0486,-0.0255 -0.0899,-0.0377 -0.0353,-0.0328 -0.0571,-0.0729 l -0.38653,-0.70868 q -0.0146,-0.0267 -0.0158,-0.0608 -0.009,-0.0474 -0.01,-0.0814 0.0121,-0.0413 0.0316,-0.0693 0.0255,-0.0486 0.0523,-0.0632 l 0.6017,-0.32819 -0.9335,-1.71151 q -0.0583,-0.10697 -0.0219,-0.23096 0.0365,-0.12398 0.14344,-0.18232 z m 6.24786,2.61235 q -0.0583,-0.10697 -0.0559,-0.22974 0.002,-0.12277 0.0462,-0.23339 0.0498,-0.13127 0.12156,-0.22244 0.0851,-0.0985 0.17868,-0.14951 l 4.03811,-2.20248 q 0.0535,-0.0292 0.0717,-0.0912 0.0182,-0.062 -0.0109,-0.11548 l -0.43029,-0.7889 q -0.0292,-0.0535 -0.1179,-0.0571 -0.096,-0.017 -0.14951,0.0122 l -4.29216,2.34105 q -0.0401,0.0219 -0.10089,0.0377 -0.0474,0.008 -0.10211,0.004 -0.062,-0.0182 -0.10332,-0.0304 -0.0486,-0.0255 -0.0705,-0.0656 l -0.34277,-0.62844 q -0.0219,-0.0401 -0.017,-0.0948 -0.002,-0.0681 0.0231,-0.11669 0.0182,-0.062 0.0571,-0.11791 0.0389,-0.0559 0.079,-0.0778 l 5.08105,-2.77134 q 0.0802,-0.0437 0.18963,-0.034 0.11548,-0.0109 0.22609,0.0328 0.11669,0.0231 0.20786,0.0948 0.0839,0.0583 0.12763,0.13857 l 2.5963,4.76015 q 0.0292,0.0535 0.0717,0.0997 0.0486,0.0255 0.0972,0.0511 0.0486,0.0255 0.0899,0.0377 0.0474,-0.009 0.1009,-0.0377 l 0.33428,-0.18232 q 0.0401,-0.0219 0.0948,-0.017 0.0608,-0.0158 0.12277,0.002 0.0547,0.005 0.10332,0.0304 0.0486,0.0255 0.0705,0.0656 l 0.35006,0.64182 q 0.0292,0.0535 0.0182,0.12885 -0.005,0.0547 -0.0365,0.12398 -0.0316,0.0693 -0.0839,0.13249 -0.0462,0.0425 -0.0997,0.0717 l -5.72287,3.1214 q -0.0936,0.0511 -0.22245,0.0693 -0.13614,0.005 -0.2662,-0.0109 -0.12399,-0.0365 -0.22852,-0.1009 -0.11183,-0.0778 -0.16288,-0.17139 z m 2.46636,-0.59921 q -0.0802,0.0438 -0.11061,0.14708 -0.0243,0.0827 0.0194,0.16288 l 0.99914,1.83186 q 0.0438,0.0802 0.13371,0.11791 0.096,0.017 0.17625,-0.0267 l 2.38008,-1.29815 q 0.0802,-0.0438 0.10453,-0.12642 0.0304,-0.10332 -0.0134,-0.18355 l -0.99914,-1.83185 q -0.0438,-0.0802 -0.13979,-0.0973 -0.0899,-0.0377 -0.17017,0.006 z m 2.98558,-8.39451 0.66856,-0.36465 q 0.12034,-0.0656 0.24433,-0.0292 0.12398,0.0365 0.18232,0.14344 l 0.93351,1.71151 1.45746,-0.79493 q 0.0535,-0.0292 0.12885,-0.0182 0.0681,-0.002 0.13735,0.0292 0.062,0.0182 0.11791,0.0571 0.0559,0.0389 0.0851,0.0924 l 0.76576,1.40397 q 0.0219,0.0401 0.0243,0.10819 0.009,0.0474 -0.01,0.1094 -0.0122,0.0413 -0.0377,0.09 -0.0255,0.0486 -0.0656,0.0705 l -1.52432,0.8314 1.85971,3.40966 q 0.0146,0.0267 0.0498,0.0596 0.0353,0.0328 0.0839,0.0583 0.0547,0.005 0.096,0.017 0.0474,-0.009 0.0875,-0.0304 l 0.72204,-0.39382 q 0.0401,-0.0219 0.0948,-0.017 0.0474,-0.009 0.096,0.017 0.0547,0.005 0.0972,0.051 0.0486,0.0255 0.0705,0.0656 l 0.28442,0.52148 q 0.0656,0.12034 0.0425,0.23703 -0.0231,0.11669 -0.13007,0.17504 l -1.85859,1.01372 q -0.10697,0.0583 -0.23096,0.0219 -0.12398,-0.0365 -0.18233,-0.14344 l -2.88073,-5.28162 -0.54822,0.29901 q -0.0401,0.0219 -0.0875,0.0304 -0.034,10e-4 -0.0887,-0.004 -0.0486,-0.0255 -0.0899,-0.0377 -0.0353,-0.0328 -0.0571,-0.0729 l -0.38653,-0.70868 q -0.0146,-0.0267 -0.0158,-0.0608 -0.009,-0.0474 -0.01,-0.0814 0.0122,-0.0413 0.0316,-0.0693 0.0255,-0.0486 0.0523,-0.0632 l 0.60171,-0.32819 -0.93351,-1.71151 q -0.0583,-0.10697 -0.0219,-0.23095 0.0365,-0.12399 0.14344,-0.18233 z m 5.05061,-0.18708 0.7889,-0.43029 q 0.0401,-0.0219 0.0948,-0.017 0.0474,-0.008 0.096,0.017 0.0413,0.0121 0.0766,0.045 0.0486,0.0255 0.0705,0.0656 l 1.02831,1.88534 q 0.0365,0.0669 0.12155,0.15924 0.0912,0.0717 0.21029,0.16289 0.11183,0.0778 0.25161,0.17504 0.13249,0.0839 0.26499,0.16776 0.14586,0.0766 0.27835,0.16046 0.14587,0.0766 0.2577,0.15438 0.11183,0.0778 0.18962,0.15681 0.0839,0.0583 0.11304,0.11183 l 1.39296,2.5539 q 0.0292,0.0535 0.0316,0.12155 0.002,0.0681 -0.009,0.14344 -0.0182,0.062 -0.0571,0.1179 -0.0255,0.0486 -0.079,0.0778 l -1.31038,0.71471 q -0.0535,0.0292 -0.14101,0.0596 -0.0814,0.01 -0.1568,-0.001 -0.0827,-0.0243 -0.15194,-0.0559 -0.0693,-0.0316 -0.10575,-0.0985 l -3.32561,-6.09727 q -0.0219,-0.0401 -0.0304,-0.0875 -0.009,-0.0474 -0.004,-0.10211 0.0182,-0.062 0.0377,-0.0899 0.0255,-0.0486 0.0656,-0.0705 z m -0.10816,-1.12074 q -0.14708,0.0802 -0.30997,0.0997 -0.17018,0.006 -0.31482,-0.0365 -0.14465,-0.0425 -0.28444,-0.13979 -0.12641,-0.10454 -0.19934,-0.23825 -0.0802,-0.14709 -0.0997,-0.30997 -0.006,-0.17018 0.0365,-0.31483 0.0426,-0.14465 0.14709,-0.27106 0.0972,-0.13979 0.24433,-0.22001 0.13371,-0.0729 0.30389,-0.079 0.16288,-0.0195 0.30753,0.0231 0.14465,0.0425 0.27106,0.14709 0.13979,0.0972 0.22001,0.24433 0.0729,0.13371 0.079,0.30389 0.0194,0.16288 -0.0231,0.30753 -0.0426,0.14465 -0.1398,0.28443 -0.10454,0.12642 -0.23825,0.19935 z m 3.26984,-0.62107 5.25488,-2.86615 q 0.0802,-0.0438 0.1483,-0.0462 0.0814,-0.01 0.1641,0.0146 0.0827,0.0243 0.14586,0.0766 0.0559,0.0389 0.0997,0.11912 l 3.23808,5.93681 q 0.0438,0.0802 0.0535,0.16167 0.002,0.0681 -0.0219,0.15073 -0.0316,0.0693 -0.0766,0.14587 -0.0389,0.0559 -0.11913,0.0997 l -5.25488,2.86614 q -0.0669,0.0365 -0.1483,0.0462 -0.0887,-0.004 -0.1641,-0.0146 -0.0693,-0.0316 -0.1252,-0.0705 -0.0632,-0.0523 -0.10696,-0.13249 l -3.23809,-5.93681 q -0.0438,-0.0802 -0.0462,-0.1483 -0.01,-0.0815 0.001,-0.15681 0.0243,-0.0827 0.0766,-0.14586 0.0523,-0.0632 0.11912,-0.0997 z m 1.54009,0.56526 q -0.0669,0.0365 -0.0851,0.0985 -0.0182,0.062 0.0109,0.11547 l 2.2973,4.21193 q 0.0292,0.0535 0.0912,0.0717 0.062,0.0182 0.12885,-0.0182 l 2.58064,-1.40754 q 0.0535,-0.0292 0.0717,-0.0912 0.0316,-0.0693 0.002,-0.12277 l -0.80101,-1.43679 q -0.0875,-0.16046 -0.141,-0.32213 -0.0474,-0.18233 -0.0668,-0.34521 -0.0267,-0.17626 -0.0328,-0.34644 1e-5,-0.19084 0.001,-0.34765 0.0146,-0.16409 0.0231,-0.30753 0.0219,-0.15072 0.0243,-0.2735 0.002,-0.12277 -0.0146,-0.21758 -0.004,-0.10211 -0.0401,-0.16896 l -0.47404,-0.86913 q -0.0292,-0.0535 -0.0912,-0.0717 -0.062,-0.0182 -0.11548,0.0109 z m 5.48585,-3.84222 q -0.12398,-0.22732 -0.0814,-0.37196 0.0486,-0.16532 0.32942,-0.31847 l 5.05431,-2.75675 q 0.14709,-0.0802 0.26864,-0.11183 0.11427,-0.045 0.21029,-0.0279 0.10211,-0.004 0.1799,0.0754 0.0839,0.0583 0.16288,0.1714 l 3.28793,5.99637 q 0.0438,0.0802 0.0462,0.1483 0.009,0.0474 0.01,0.0814 -0.006,0.0207 -0.0255,0.0486 -0.0134,0.007 -0.0267,0.0146 l -0.85576,0.46675 q -0.0267,0.0146 -0.0742,0.0231 -0.0474,0.008 -0.1021,0.004 -0.0486,-0.0255 -0.0899,-0.0377 -0.0353,-0.0328 -0.0571,-0.0729 l -2.81509,-5.16129 q -0.0438,-0.0802 -0.079,-0.11304 -0.0292,-0.0535 -0.0632,-0.0523 -0.028,-0.0195 -0.0681,0.002 -0.034,0.001 -0.0875,0.0304 l -3.3428,1.82325 q -0.0802,0.0438 -0.11305,0.079 -0.0267,0.0146 -0.0389,0.0559 -0.006,0.0207 0.0158,0.0608 0.0219,0.0401 0.0511,0.0936 l 0.80952,1.48421 q 0.0438,0.0802 0.12155,0.15924 0.0705,0.0656 0.16775,0.11669 0.0972,0.0511 0.19448,0.10211 0.10332,0.0304 0.21394,0.0742 0.10332,0.0304 0.20056,0.0814 0.10332,0.0304 0.18719,0.0887 0.0972,0.0511 0.16775,0.1167 0.0839,0.0584 0.13492,0.15195 l 1.33462,2.44693 q 0.0219,0.0401 0.017,0.0948 10e-4,0.034 -0.017,0.096 -0.0122,0.0413 -0.045,0.0766 -0.0194,0.028 -0.0596,0.0498 l -1.55106,0.84599 q -0.0267,0.0146 -0.0742,0.0231 -0.034,10e-4 -0.0754,-0.0109 -0.0413,-0.0122 -0.0693,-0.0316 -0.0353,-0.0328 -0.0571,-0.0729 z"
       id="text239"
       aria-label="Mantaray&#10;Mutation"
       inkscape:export-filename="mantaray_logo.svg"
       inkscape:export-xdpi="96"
       inkscape:export-ydpi="96" /><path
       style="fill:none;stroke:#000000"
       d="m 67.72646,434.7381 85.105,-317.61"
       id="path5"
       inkscape:export-filename="jn.svg"
       inkscape:export-xdpi="96"
       inkscape:export-ydpi="96" /><path
       style="fill:none;stroke:#000000"
       d="m 162.08946,111.7781 328.567,88.04"
       id="path6" /><path
       style="fill:none;stroke:#000000"
       d="m 496.00146,209.0781 -25.315,94.48"
       id="path7" /><path
       style="fill:none;stroke:#000000"
       d="m 477.98846,313.0681 h 143.174"
       id="path8" /><path
       style="fill:none;stroke:#000000"
       d="m 628.46446,303.5581 -25.315,-94.48"
       id="path9" /><path
       style="fill:none;stroke:#000000"
       d="m 608.49446,199.8181 328.563,-88.04"
       id="path10" /><path
       style="fill:none;stroke:#000000"
       d="m 946.31746,117.1281 85.11004,317.61"
       id="path11" /><path
       style="fill:none;stroke:#000000"
       d="m 1026.0775,443.9981 -65.71001,17.61"
       id="path12" /><path
       style="fill:none;stroke:#000000"
       d="m 951.10746,456.2581 -8.34,-31.13"
       id="path13" /><path
       style="fill:none;stroke:#000000"
       d="m 933.34746,419.8381 -153.086,44.78"
       id="path14" /><path
       style="fill:none;stroke:#000000"
       d="m 775.53346,475.0681 26.628,57.1"
       id="path15" /><path
       style="fill:none;stroke:#000000"
       d="m 798.50546,542.2181 -67.53,31.49"
       id="path16" /><path
       style="fill:none;stroke:#000000"
       d="m 729.18546,574.8781 -52.274,45.86"
       id="path17" /><path
       style="fill:none;stroke:#000000"
       d="m 676.03446,621.6481 -39.75,48.82"
       id="path18" /><path
       style="fill:none;stroke:#000000"
       d="m 625.56346,671.4881 -52.816,-44.32"
       id="path19" /><path
       style="fill:none;stroke:#000000"
       d="m 567.88846,625.3981 h -36.626"
       id="path20" /><path
       style="fill:none;stroke:#000000"
       d="m 526.40346,627.1681 -52.816,44.32"
       id="path21" /><path
       style="fill:none;stroke:#000000"
       d="m 462.86646,670.4681 -39.75,-48.82"
       id="path22" /><path
       style="fill:none;stroke:#000000"
       d="m 422.23946,620.7381 -52.274,-45.86"
       id="path23" /><path
       style="fill:none;stroke:#000000"
       d="m 368.17546,573.7081 -67.53,-31.49"
       id="path24" /><path
       style="fill:none;stroke:#000000"
       d="m 296.98946,532.1681 26.628,-57.1"
       id="path25" /><path
       style="fill:none;stroke:#000000"
       d="m 318.88946,464.6181 -153.081,-44.78"
       id="path26" /><path
       style="fill:none;stroke:#000000"
       d="m 156.38446,425.1281 -8.341,31.13"
       id="path27" /><path
       style="fill:none;stroke:#000000"
       d="m 138.78546,461.6081 -65.714,-17.61"
       id="path28" /><path
       d="m 162.08925,111.7819 a 7.559055,7.559055 0 0 0 -9.25792,5.3451"
       style="fill:none;stroke:#000000"
       id="path29" /><path
       d="m 496.0012,209.0791 a 7.559055,7.559055 0 0 0 -5.34506,-9.2579"
       style="fill:none;stroke:#000000"
       id="path30" /><path
       d="m 470.68694,303.5532 a 7.559055,7.559055 0 0 0 7.30149,9.5155"
       style="fill:none;stroke:#000000"
       id="path31" /><path
       d="m 621.16248,313.0687 a 7.559055,7.559055 0 0 0 7.30149,-9.5155"
       style="fill:none;stroke:#000000"
       id="path32" /><path
       d="m 608.49476,199.8212 a 7.559055,7.559055 0 0 0 -5.34505,9.2579"
       style="fill:none;stroke:#000000"
       id="path33" /><path
       d="m 946.31957,117.127 a 7.559055,7.559055 0 0 0 -9.25791,-5.3451"
       style="fill:none;stroke:#000000"
       id="path34" /><path
       d="m 1026.0791,443.9996 a 7.559055,7.559055 0 0 0 5.3451,-9.2579"
       style="fill:none;stroke:#000000"
       id="path35" /><path
       d="m 951.10781,456.2624 a 7.559055,7.559055 0 0 0 9.25788,5.345"
       style="fill:none;stroke:#000000"
       id="path36" /><path
       d="m 942.76671,425.1329 a 7.559055,7.559055 0 0 0 -9.42387,-5.2985"
       style="fill:none;stroke:#000000"
       id="path37" /><path
       d="m 780.26146,464.6171 a 7.559055,7.559055 0 0 0 -4.72844,10.4496"
       style="fill:none;stroke:#000000"
       id="path38" /><path
       d="m 798.50523,542.217 a 7.559055,7.559055 0 0 0 3.65624,-10.0454"
       style="fill:none;stroke:#000000"
       id="path39" /><path
       d="m 730.97568,573.7066 a 7.559055,7.559055 0 0 0 -1.79055,1.1686"
       style="fill:none;stroke:#000000"
       id="path40" /><path
       d="m 676.91157,620.7361 a 7.559055,7.559055 0 0 0 -0.87684,0.9097"
       style="fill:none;stroke:#000000"
       id="path41" /><path
       d="m 625.56331,671.4894 a 7.559055,7.559055 0 0 0 10.72085,-1.0181"
       style="fill:none;stroke:#000000"
       id="path42" /><path
       d="m 572.74699,627.1712 a 7.559055,7.559055 0 0 0 -4.85887,-1.7684"
       style="fill:none;stroke:#000000"
       id="path43" /><path
       d="m 531.26279,625.4028 a 7.559055,7.559055 0 0 0 -4.85887,1.7684"
       style="fill:none;stroke:#000000"
       id="path44" /><path
       d="m 462.86674,670.4713 a 7.559055,7.559055 0 0 0 10.72086,1.0181"
       style="fill:none;stroke:#000000"
       id="path45" /><path
       d="m 423.11617,621.6458 a 7.559055,7.559055 0 0 0 -0.87684,-0.9097"
       style="fill:none;stroke:#000000"
       id="path46" /><path
       d="m 369.96578,574.8752 a 7.559055,7.559055 0 0 0 -1.79056,-1.1686"
       style="fill:none;stroke:#000000"
       id="path47" /><path
       d="m 296.98944,532.1716 a 7.559055,7.559055 0 0 0 3.65623,10.0454"
       style="fill:none;stroke:#000000"
       id="path48" /><path
       d="m 323.61789,475.0667 a 7.559055,7.559055 0 0 0 -4.72845,-10.4496"
       style="fill:none;stroke:#000000"
       id="path49" /><path
       d="m 165.80807,419.8344 a 7.559055,7.559055 0 0 0 -9.42388,5.2985"
       style="fill:none;stroke:#000000"
       id="path50" /><path
       d="m 138.78518,461.6074 a 7.559055,7.559055 0 0 0 9.25791,-5.345"
       style="fill:none;stroke:#000000"
       id="path51" /><path
       d="m 67.72674,434.7417 a 7.559055,7.559055 0 0 0 5.34506,9.2579"
       style="fill:none;stroke:#000000"
       id="path52" /><path
       style="fill:none;stroke:#000000"
       d="m 76.18546,436.0281 63.888,17.12"
       id="path53" /><path
       style="fill:none;stroke:#000000"
       d="m 140.07346,453.1481 16.141,-60.24"
       id="path54" /><path
       style="fill:none;stroke:#000000"
       d="m 156.21446,392.9081 -63.888,-17.12"
       id="path55" /><path
       style="fill:none;stroke:#000000"
       d="m 92.32646,375.7881 -16.141,60.24"
       id="path56" /><path
       style="fill:none;stroke:#000000"
       d="m 92.81546,373.9681 63.888,17.12"
       id="path57" /><path
       style="fill:none;stroke:#000000"
       d="m 156.70346,391.0881 16.14,-60.24"
       id="path58" /><path
       style="fill:none;stroke:#000000"
       d="m 172.84346,330.8481 -63.888,-17.12"
       id="path59" /><path
       style="fill:none;stroke:#000000"
       d="m 108.95546,313.7281 -16.14,60.24"
       id="path60" /><path
       style="fill:none;stroke:#000000"
       d="m 109.44446,311.9081 63.888,17.12"
       id="path61" /><path
       style="fill:none;stroke:#000000"
       d="m 173.33246,329.0281 16.141,-60.24"
       id="path62" /><path
       style="fill:none;stroke:#000000"
       d="m 189.47346,268.7881 -63.888,-17.12"
       id="path63" /><path
       style="fill:none;stroke:#000000"
       d="m 125.58546,251.6681 -16.141,60.24"
       id="path64" /><path
       style="fill:none;stroke:#000000"
       d="m 154.19746,407.7381 63.888,17.12"
       id="path65" /><path
       style="fill:none;stroke:#000000"
       d="m 218.08546,424.8581 16.141,-60.24"
       id="path66" /><path
       style="fill:none;stroke:#000000"
       d="m 234.22646,364.6181 -63.888,-17.12"
       id="path67" /><path
       style="fill:none;stroke:#000000"
       d="m 170.33846,347.4981 -16.141,60.24"
       id="path68" /><path
       style="fill:none;stroke:#000000"
       d="m 170.82746,345.6781 63.888,17.11"
       id="path69" /><path
       style="fill:none;stroke:#000000"
       d="m 234.71546,362.7881 16.141,-60.23"
       id="path70" /><path
       style="fill:none;stroke:#000000"
       d="m 250.85646,302.5581 -63.888,-17.12"
       id="path71" /><path
       style="fill:none;stroke:#000000"
       d="m 186.96846,285.4381 -16.141,60.24"
       id="path72" /><path
       style="fill:none;stroke:#000000"
       d="m 187.45746,283.6081 63.888,17.12"
       id="path73" /><path
       style="fill:none;stroke:#000000"
       d="m 251.34546,300.7281 16.14,-60.23"
       id="path74" /><path
       style="fill:none;stroke:#000000"
       d="m 267.48546,240.4981 -63.888,-17.12"
       id="path75" /><path
       style="fill:none;stroke:#000000"
       d="m 203.59746,223.3781 -16.14,60.23"
       id="path76" /><path
       style="fill:none;stroke:#000000"
       d="m 224.57046,407.9581 63.888,17.12"
       id="path77" /><path
       style="fill:none;stroke:#000000"
       d="m 288.45846,425.0781 16.14,-60.24"
       id="path78" /><path
       style="fill:none;stroke:#000000"
       d="m 304.59846,364.8381 -63.888,-17.12"
       id="path79" /><path
       style="fill:none;stroke:#000000"
       d="m 240.71046,347.7181 -16.14,60.24"
       id="path80" /><path
       style="fill:none;stroke:#000000"
       d="m 241.19946,345.8981 63.888,17.12"
       id="path81" /><path
       style="fill:none;stroke:#000000"
       d="m 305.08746,363.0181 16.141,-60.24"
       id="path82" /><path
       style="fill:none;stroke:#000000"
       d="m 321.22846,302.7781 -63.888,-17.12"
       id="path83" /><path
       style="fill:none;stroke:#000000"
       d="m 257.34046,285.6581 -16.141,60.24"
       id="path84" /><path
       style="fill:none;stroke:#000000"
       d="m 257.82946,283.8281 63.888,17.12"
       id="path85" /><path
       style="fill:none;stroke:#000000"
       d="m 321.71746,300.9481 16.14,-60.23"
       id="path86" /><path
       style="fill:none;stroke:#000000"
       d="m 337.85746,240.7181 -63.888,-17.12"
       id="path87" /><path
       style="fill:none;stroke:#000000"
       d="m 273.96946,223.5981 -16.14,60.23"
       id="path88" /><path
       style="fill:none;stroke:#000000"
       d="m 285.62446,442.9481 63.888,17.12"
       id="path89" /><path
       style="fill:none;stroke:#000000"
       d="m 349.51246,460.0681 16.141,-60.23"
       id="path90" /><path
       style="fill:none;stroke:#000000"
       d="m 365.65346,399.8381 -63.888,-17.12"
       id="path91" /><path
       style="fill:none;stroke:#000000"
       d="m 301.76546,382.7181 -16.141,60.23"
       id="path92" /><path
       style="fill:none;stroke:#000000"
       d="m 302.25446,380.8881 63.888,17.12"
       id="path93" /><path
       style="fill:none;stroke:#000000"
       d="m 366.14246,398.0081 16.14,-60.24"
       id="path94" /><path
       style="fill:none;stroke:#000000"
       d="m 382.28246,337.7681 -63.888,-17.12"
       id="path95" /><path
       style="fill:none;stroke:#000000"
       d="m 318.39446,320.6481 -16.14,60.24"
       id="path96" /><path
       style="fill:none;stroke:#000000"
       d="m 318.88346,318.8281 63.888,17.12"
       id="path97" /><path
       style="fill:none;stroke:#000000"
       d="m 382.77146,335.9481 16.141,-60.24"
       id="path98" /><path
       style="fill:none;stroke:#000000"
       d="m 398.91246,275.7081 -63.888,-17.12"
       id="path99" /><path
       style="fill:none;stroke:#000000"
       d="m 335.02446,258.5881 -16.141,60.24"
       id="path100" /><path
       style="fill:none;stroke:#000000"
       d="m 348.54246,470.9881 63.888,17.12"
       id="path101" /><path
       style="fill:none;stroke:#000000"
       d="m 412.43046,488.1081 16.141,-60.23"
       id="path102" /><path
       style="fill:none;stroke:#000000"
       d="m 428.57146,427.8781 -63.888,-17.12"
       id="path103" /><path
       style="fill:none;stroke:#000000"
       d="m 364.68346,410.7581 -16.141,60.23"
       id="path104" /><path
       style="fill:none;stroke:#000000"
       d="m 365.17246,408.9281 63.888,17.12"
       id="path105" /><path
       style="fill:none;stroke:#000000"
       d="m 429.06046,426.0481 16.141,-60.24"
       id="path106" /><path
       style="fill:none;stroke:#000000"
       d="m 445.20146,365.8081 -63.888,-17.12"
       id="path107" /><path
       style="fill:none;stroke:#000000"
       d="m 381.31346,348.6881 -16.141,60.24"
       id="path108" /><path
       style="fill:none;stroke:#000000"
       d="m 381.80246,346.8681 63.888,17.12"
       id="path109" /><path
       style="fill:none;stroke:#000000"
       d="m 445.69046,363.9881 16.14,-60.24"
       id="path110" /><path
       style="fill:none;stroke:#000000"
       d="m 461.83046,303.7481 -63.888,-17.12"
       id="path111" /><path
       style="fill:none;stroke:#000000"
       d="m 397.94246,286.6281 -16.14,60.24"
       id="path112" /><path
       style="fill:none;stroke:#000000"
       d="m 144.66046,180.4781 63.888,17.12"
       id="path113" /><path
       style="fill:none;stroke:#000000"
       d="m 208.54846,197.5981 16.14,-60.24"
       id="path114" /><path
       style="fill:none;stroke:#000000"
       d="m 224.68846,137.3581 -63.888,-17.12"
       id="path115" /><path
       style="fill:none;stroke:#000000"
       d="m 160.80046,120.2381 -16.14,60.24"
       id="path116" /><path
       style="fill:none;stroke:#000000"
       d="m 210.37346,198.0881 63.888,17.12"
       id="path117" /><path
       style="fill:none;stroke:#000000"
       d="m 274.26146,215.2081 16.141,-60.24"
       id="path118" /><path
       style="fill:none;stroke:#000000"
       d="m 290.40246,154.9681 -63.888,-17.12"
       id="path119" /><path
       style="fill:none;stroke:#000000"
       d="m 226.51446,137.8481 -16.141,60.24"
       id="path120" /><path
       style="fill:none;stroke:#000000"
       d="m 276.08746,215.6981 63.888,17.11"
       id="path121" /><path
       style="fill:none;stroke:#000000"
       d="m 339.97546,232.8081 16.14,-60.23"
       id="path122" /><path
       style="fill:none;stroke:#000000"
       d="m 356.11546,172.5781 -63.888,-17.12"
       id="path123" /><path
       style="fill:none;stroke:#000000"
       d="m 292.22746,155.4581 -16.14,60.24"
       id="path124" /><path
       style="fill:none;stroke:#000000"
       d="m 341.80046,233.2981 63.888,17.12"
       id="path125" /><path
       style="fill:none;stroke:#000000"
       d="m 405.68846,250.4181 16.141,-60.24"
       id="path126" /><path
       style="fill:none;stroke:#000000"
       d="m 421.82946,190.1781 -63.888,-17.11"
       id="path127" /><path
       style="fill:none;stroke:#000000"
       d="m 357.94146,173.0681 -16.141,60.23"
       id="path128" /><path
       style="fill:none;stroke:#000000"
       d="m 407.51346,250.9081 63.888,17.12"
       id="path129" /><path
       style="fill:none;stroke:#000000"
       d="m 471.40146,268.0281 16.141,-60.24"
       id="path130" /><path
       style="fill:none;stroke:#000000"
       d="m 487.54246,207.7881 -63.888,-17.12"
       id="path131" /><path
       style="fill:none;stroke:#000000"
       d="m 423.65446,190.6681 -16.141,60.24"
       id="path132" /><path
       style="fill:none;stroke:#000000"
       d="m 305.09546,534.9081 59.945,27.95"
       id="path133" /><path
       style="fill:none;stroke:#000000"
       d="m 365.04046,562.8581 26.356,-56.52"
       id="path134" /><path
       style="fill:none;stroke:#000000"
       d="m 391.39646,506.3381 -59.945,-27.95"
       id="path135" /><path
       style="fill:none;stroke:#000000"
       d="m 331.45146,478.3881 -26.356,56.52"
       id="path136" /><path
       style="fill:none;stroke:#000000"
       d="m 371.00046,566.6581 50.667,42.52"
       id="path137" /><path
       style="fill:none;stroke:#000000"
       d="m 421.66746,609.1781 40.086,-47.78"
       id="path138" /><path
       style="fill:none;stroke:#000000"
       d="m 461.75346,561.3981 -50.668,-42.51"
       id="path139" /><path
       style="fill:none;stroke:#000000"
       d="m 411.08546,518.8881 -40.085,47.77"
       id="path140" /><path
       style="fill:none;stroke:#000000"
       d="m 426.24346,613.7681 42.515,50.67"
       id="path141" /><path
       style="fill:none;stroke:#000000"
       d="m 468.75846,664.4381 47.772,-40.08"
       id="path142" /><path
       style="fill:none;stroke:#000000"
       d="m 516.53046,624.3581 -42.515,-50.67"
       id="path143" /><path
       style="fill:none;stroke:#000000"
       d="m 474.01546,573.6881 -47.772,40.08"
       id="path144" /><path
       style="fill:none;stroke:#000000"
       d="m 959.07749,453.1481 63.89001,-17.12"
       id="path145" /><path
       style="fill:none;stroke:#000000"
       d="m 1022.9675,436.0281 -16.14,-60.24"
       id="path146" /><path
       style="fill:none;stroke:#000000"
       d="m 1006.8275,375.7881 -63.89004,17.12"
       id="path147" /><path
       style="fill:none;stroke:#000000"
       d="m 942.93746,392.9081 16.14003,60.24"
       id="path148" /><path
       style="fill:none;stroke:#000000"
       d="m 942.44746,391.0881 63.89004,-17.12"
       id="path149" /><path
       style="fill:none;stroke:#000000"
       d="m 1006.3375,373.9681 -16.14,-60.24"
       id="path150" /><path
       style="fill:none;stroke:#000000"
       d="m 990.1975,313.7281 -63.89004,17.12"
       id="path151" /><path
       style="fill:none;stroke:#000000"
       d="m 926.30746,330.8481 16.14,60.24"
       id="path152" /><path
       style="fill:none;stroke:#000000"
       d="m 925.81746,329.0281 63.89004,-17.12"
       id="path153" /><path
       style="fill:none;stroke:#000000"
       d="m 989.7075,311.9081 -16.14,-60.24"
       id="path154" /><path
       style="fill:none;stroke:#000000"
       d="m 973.5675,251.6681 -63.89004,17.12"
       id="path155" /><path
       style="fill:none;stroke:#000000"
       d="m 909.67746,268.7881 16.14,60.24"
       id="path156" /><path
       style="fill:none;stroke:#000000"
       d="m 881.06546,424.8581 63.892,-17.12"
       id="path157" /><path
       style="fill:none;stroke:#000000"
       d="m 944.95746,407.7381 -16.15,-60.24"
       id="path158" /><path
       style="fill:none;stroke:#000000"
       d="m 928.80746,347.4981 -63.883,17.12"
       id="path159" /><path
       style="fill:none;stroke:#000000"
       d="m 864.92446,364.6181 16.141,60.24"
       id="path160" /><path
       style="fill:none;stroke:#000000"
       d="m 864.43546,362.7881 63.892,-17.11"
       id="path161" /><path
       style="fill:none;stroke:#000000"
       d="m 928.32746,345.6781 -16.14,-60.24"
       id="path162" /><path
       style="fill:none;stroke:#000000"
       d="m 912.18746,285.4381 -63.893,17.12"
       id="path163" /><path
       style="fill:none;stroke:#000000"
       d="m 848.29446,302.5581 16.141,60.23"
       id="path164" /><path
       style="fill:none;stroke:#000000"
       d="m 847.80546,300.7281 63.892,-17.12"
       id="path165" /><path
       style="fill:none;stroke:#000000"
       d="m 911.69746,283.6081 -16.144,-60.23"
       id="path166" /><path
       style="fill:none;stroke:#000000"
       d="m 895.55346,223.3781 -63.888,17.12"
       id="path167" /><path
       style="fill:none;stroke:#000000"
       d="m 831.66546,240.4981 16.14,60.23"
       id="path168" /><path
       style="fill:none;stroke:#000000"
       d="m 810.69246,425.0781 63.888,-17.12"
       id="path169" /><path
       style="fill:none;stroke:#000000"
       d="m 874.58046,407.9581 -16.14,-60.24"
       id="path170" /><path
       style="fill:none;stroke:#000000"
       d="m 858.44046,347.7181 -63.888,17.12"
       id="path171" /><path
       style="fill:none;stroke:#000000"
       d="m 794.55246,364.8381 16.14,60.24"
       id="path172" /><path
       style="fill:none;stroke:#000000"
       d="m 794.06346,363.0181 63.888,-17.12"
       id="path173" /><path
       style="fill:none;stroke:#000000"
       d="m 857.95146,345.8981 -16.141,-60.24"
       id="path174" /><path
       style="fill:none;stroke:#000000"
       d="m 841.81046,285.6581 -63.888,17.12"
       id="path175" /><path
       style="fill:none;stroke:#000000"
       d="m 777.92246,302.7781 16.141,60.24"
       id="path176" /><path
       style="fill:none;stroke:#000000"
       d="m 777.43346,300.9481 63.888,-17.12"
       id="path177" /><path
       style="fill:none;stroke:#000000"
       d="m 841.32146,283.8281 -16.14,-60.23"
       id="path178" /><path
       style="fill:none;stroke:#000000"
       d="m 825.18146,223.5981 -63.888,17.12"
       id="path179" /><path
       style="fill:none;stroke:#000000"
       d="m 761.29346,240.7181 16.14,60.23"
       id="path180" /><path
       style="fill:none;stroke:#000000"
       d="m 749.63846,460.0681 63.888,-17.12"
       id="path181" /><path
       style="fill:none;stroke:#000000"
       d="m 813.52646,442.9481 -16.141,-60.23"
       id="path182" /><path
       style="fill:none;stroke:#000000"
       d="m 797.38546,382.7181 -63.888,17.12"
       id="path183" /><path
       style="fill:none;stroke:#000000"
       d="m 733.49746,399.8381 16.141,60.23"
       id="path184" /><path
       style="fill:none;stroke:#000000"
       d="m 733.00846,398.0081 63.888,-17.12"
       id="path185" /><path
       style="fill:none;stroke:#000000"
       d="m 796.89646,380.8881 -16.14,-60.24"
       id="path186" /><path
       style="fill:none;stroke:#000000"
       d="m 780.75646,320.6481 -63.888,17.12"
       id="path187" /><path
       style="fill:none;stroke:#000000"
       d="m 716.86846,337.7681 16.14,60.24"
       id="path188" /><path
       style="fill:none;stroke:#000000"
       d="m 716.37846,335.9481 63.888,-17.12"
       id="path189" /><path
       style="fill:none;stroke:#000000"
       d="m 780.26646,318.8281 -16.14,-60.24"
       id="path190" /><path
       style="fill:none;stroke:#000000"
       d="m 764.12646,258.5881 -63.888,17.12"
       id="path191" /><path
       style="fill:none;stroke:#000000"
       d="m 700.23846,275.7081 16.14,60.24"
       id="path192" /><path
       style="fill:none;stroke:#000000"
       d="m 686.72046,488.1081 63.888,-17.12"
       id="path193" /><path
       style="fill:none;stroke:#000000"
       d="m 750.60846,470.9881 -16.141,-60.23"
       id="path194" /><path
       style="fill:none;stroke:#000000"
       d="m 734.46746,410.7581 -63.888,17.12"
       id="path195" /><path
       style="fill:none;stroke:#000000"
       d="m 670.57946,427.8781 16.141,60.23"
       id="path196" /><path
       style="fill:none;stroke:#000000"
       d="m 670.09046,426.0481 63.888,-17.12"
       id="path197" /><path
       style="fill:none;stroke:#000000"
       d="m 733.97846,408.9281 -16.141,-60.24"
       id="path198" /><path
       style="fill:none;stroke:#000000"
       d="m 717.83746,348.6881 -63.888,17.12"
       id="path199" /><path
       style="fill:none;stroke:#000000"
       d="m 653.94946,365.8081 16.141,60.24"
       id="path200" /><path
       style="fill:none;stroke:#000000"
       d="m 653.46046,363.9881 63.888,-17.12"
       id="path201" /><path
       style="fill:none;stroke:#000000"
       d="m 717.34846,346.8681 -16.14,-60.24"
       id="path202" /><path
       style="fill:none;stroke:#000000"
       d="m 701.20846,286.6281 -63.888,17.12"
       id="path203" /><path
       style="fill:none;stroke:#000000"
       d="m 637.32046,303.7481 16.14,60.24"
       id="path204" /><path
       style="fill:none;stroke:#000000"
       d="m 890.60246,197.5981 63.88503,-17.12"
       id="path205" /><path
       style="fill:none;stroke:#000000"
       d="m 954.48749,180.4781 -16.14003,-60.24"
       id="path206" /><path
       style="fill:none;stroke:#000000"
       d="m 938.34746,120.2381 -63.886,17.12"
       id="path207" /><path
       style="fill:none;stroke:#000000"
       d="m 874.46146,137.3581 16.141,60.24"
       id="path208" /><path
       style="fill:none;stroke:#000000"
       d="m 824.88946,215.2081 63.888,-17.12"
       id="path209" /><path
       style="fill:none;stroke:#000000"
       d="m 888.77746,198.0881 -16.141,-60.24"
       id="path210" /><path
       style="fill:none;stroke:#000000"
       d="m 872.63646,137.8481 -63.888,17.12"
       id="path211" /><path
       style="fill:none;stroke:#000000"
       d="m 808.74846,154.9681 16.141,60.24"
       id="path212" /><path
       style="fill:none;stroke:#000000"
       d="m 759.17546,232.8081 63.888,-17.11"
       id="path213" /><path
       style="fill:none;stroke:#000000"
       d="m 823.06346,215.6981 -16.14,-60.24"
       id="path214" /><path
       style="fill:none;stroke:#000000"
       d="m 806.92346,155.4581 -63.888,17.12"
       id="path215" /><path
       style="fill:none;stroke:#000000"
       d="m 743.03546,172.5781 16.14,60.23"
       id="path216" /><path
       style="fill:none;stroke:#000000"
       d="m 693.46246,250.4181 63.888,-17.12"
       id="path217" /><path
       style="fill:none;stroke:#000000"
       d="m 757.35046,233.2981 -16.141,-60.23"
       id="path218" /><path
       style="fill:none;stroke:#000000"
       d="m 741.20946,173.0681 -63.888,17.11"
       id="path219" /><path
       style="fill:none;stroke:#000000"
       d="m 677.32146,190.1781 16.141,60.24"
       id="path220" /><path
       style="fill:none;stroke:#000000"
       d="m 627.74846,268.0281 63.889,-17.12"
       id="path221" /><path
       style="fill:none;stroke:#000000"
       d="m 691.63746,250.9081 -16.141,-60.24"
       id="path222" /><path
       style="fill:none;stroke:#000000"
       d="m 675.49646,190.6681 -63.888,17.12"
       id="path223" /><path
       style="fill:none;stroke:#000000"
       d="m 611.60846,207.7881 16.14,60.24"
       id="path224" /><path
       style="fill:none;stroke:#000000"
       d="m 734.11046,562.8581 59.944,-27.95"
       id="path225" /><path
       style="fill:none;stroke:#000000"
       d="m 794.05446,534.9081 -26.355,-56.52"
       id="path226" /><path
       style="fill:none;stroke:#000000"
       d="m 767.69946,478.3881 -59.945,27.95"
       id="path227" /><path
       style="fill:none;stroke:#000000"
       d="m 707.75446,506.3381 26.356,56.52"
       id="path228" /><path
       style="fill:none;stroke:#000000"
       d="m 677.48346,609.1781 50.667,-42.52"
       id="path229" /><path
       style="fill:none;stroke:#000000"
       d="m 728.15046,566.6581 -40.085,-47.77"
       id="path230" /><path
       style="fill:none;stroke:#000000"
       d="m 688.06546,518.8881 -50.668,42.51"
       id="path231" /><path
       style="fill:none;stroke:#000000"
       d="m 637.39746,561.3981 40.086,47.78"
       id="path232" /><path
       style="fill:none;stroke:#000000"
       d="m 630.39246,664.4381 42.515,-50.67"
       id="path233" /><path
       style="fill:none;stroke:#000000"
       d="m 672.90746,613.7681 -47.772,-40.08"
       id="path234" /><path
       style="fill:none;stroke:#000000"
       d="m 625.13546,573.6881 -42.515,50.67"
       id="path235" /><path
       style="fill:none;stroke:#000000"
       d="m 582.62046,624.3581 47.772,40.08"
       id="path236" /><path
       style="fill:none;stroke:#000000;stroke-width:1.00157;stroke-dasharray:none;stroke-opacity:1"
       id="path237"
       sodipodi:type="arc"
       sodipodi:cx="533.48346"
       sodipodi:cy="453.43628"
       sodipodi:rx="3.4658711"
       sodipodi:ry="3.4658711"
       sodipodi:start="0.063454008"
       sodipodi:end="0.059012735"
       sodipodi:arc-type="arc"
       d="m 536.94236,453.65606 a 3.4658711,3.4658711 0 0 1 -3.67484,3.23936 3.4658711,3.4658711 0 0 1 -3.24344,-3.67124 3.4658711,3.4658711 0 0 1 3.66763,-3.24751 3.4658711,3.4658711 0 0 1 3.25159,3.66402"
       sodipodi:open="true" /><path
       style="fill:none;stroke:#000000;stroke-width:1.00157;stroke-dasharray:none;stroke-opacity:1"
       id="path237-3"
       sodipodi:type="arc"
       sodipodi:cx="543.19702"
       sodipodi:cy="453.43628"
       sodipodi:rx="3.4658711"
       sodipodi:ry="3.4658711"
       sodipodi:start="0.063454008"
       sodipodi:end="0.059012735"
       sodipodi:arc-type="arc"
       d="m 546.65592,453.65606 a 3.4658711,3.4658711 0 0 1 -3.67483,3.23936 3.4658711,3.4658711 0 0 1 -3.24344,-3.67124 3.4658711,3.4658711 0 0 1 3.66762,-3.24751 3.4658711,3.4658711 0 0 1 3.25159,3.66402"
       sodipodi:open="true" /><path
       style="fill:none;stroke:#000000;stroke-width:1.00157;stroke-dasharray:none;stroke-opacity:1"
       id="path237-6"
       sodipodi:type="arc"
       sodipodi:cx="552.91052"
       sodipodi:cy="453.43628"
       sodipodi:rx="3.4658711"
       sodipodi:ry="3.4658711"
       sodipodi:start="0.063454008"
       sodipodi:end="0.059012735"
       sodipodi:arc-type="arc"
       d="m 556.36942,453.65606 a 3.4658711,3.4658711 0 0 1 -3.67483,3.23936 3.4658711,3.4658711 0 0 1 -3.24344,-3.67124 3.4658711,3.4658711 0 0 1 3.66763,-3.24751 3.4658711,3.4658711 0 0 1 3.25158,3.66402"
       sodipodi:open="true" /><path
       style="fill:none;stroke:#000000;stroke-width:1.00157;stroke-dasharray:none;stroke-opacity:1"
       id="path237-7"
       sodipodi:type="arc"
       sodipodi:cx="562.62408"
       sodipodi:cy="453.43628"
       sodipodi:rx="3.4658711"
       sodipodi:ry="3.4658711"
       sodipodi:start="0.063454008"
       sodipodi:end="0.059012735"
       sodipodi:arc-type="arc"
       d="m 566.08298,453.65606 a 3.4658711,3.4658711 0 0 1 -3.67483,3.23936 3.4658711,3.4658711 0 0 1 -3.24344,-3.67124 3.4658711,3.4658711 0 0 1 3.66763,-3.24751 3.4658711,3.4658711 0 0 1 3.25158,3.66402"
       sodipodi:open="true" /><g
       inkscape:label="0"
       id="g12"
       transform="translate(-103.21801,-1353.6138)"><path
         d="m 320.35432,1539.8232 a 5.6692915,5.6692915 0 0 0 -11.33858,0 5.6692915,5.6692915 0 0 0 11.33858,0 z"
         style="fill:none;stroke:#000000"
         id="path5-7" /><path
         d="m 268.509,1733.3126 a 5.669295,5.669295 0 0 0 -11.33859,0 5.669295,5.669295 0 0 0 11.33859,0 z"
         style="fill:none;stroke:#000000"
         id="path6-0" /><path
         d="m 517.49446,1592.6468 a 5.6692915,5.6692915 0 0 0 -11.33858,0 5.6692915,5.6692915 0 0 0 11.33858,0 z"
         style="fill:none;stroke:#000000"
         id="path7-9" /><path
         d="m 460.4871,1805.4011 a 5.669291,5.669291 0 0 0 -11.33858,0 5.669291,5.669291 0 0 0 11.33858,0 z"
         style="fill:none;stroke:#000000"
         id="path8-3" /><path
         d="m 994.42024,1539.8232 a 5.669291,5.669291 0 0 0 -11.33858,0 5.669291,5.669291 0 0 0 11.33858,0 z"
         style="fill:none;stroke:#000000"
         id="path9-6" /><path
         d="m 1046.2656,1733.3126 a 5.6693,5.6693 0 0 0 -11.3386,0 5.6693,5.6693 0 0 0 11.3386,0 z"
         style="fill:none;stroke:#000000"
         id="path10-0" /><path
         d="m 797.28011,1592.6468 a 5.669295,5.669295 0 0 0 -11.33859,0 5.669295,5.669295 0 0 0 11.33859,0 z"
         style="fill:none;stroke:#000000"
         id="path11-6" /><path
         d="m 854.28747,1805.4011 a 5.669295,5.669295 0 0 0 -11.33859,0 5.669295,5.669295 0 0 0 11.33859,0 z"
         style="fill:none;stroke:#000000"
         id="path12-2" /></g><path
       id="path238"
       style="fill:#000000;fill-opacity:1;stroke:#000000;stroke-width:0.331577;stroke-dasharray:none;stroke-opacity:1"
       d="m 554.82033,476.60289 c -0.22923,0.0234 0.22068,1.78018 0.22306,4.23715 0,1.07347 -0.1727,2.26369 -1.39728,3.04741 -1.22459,0.78372 -6.17178,0.83281 -6.17178,0.83281 v 0.0505 c -1.43073,-0.0485 -4.47633,-0.21956 -5.40425,-0.81342 -1.22455,-0.78374 -1.39828,-1.97396 -1.39729,-3.04742 0.003,-2.45697 0.45232,-4.2137 0.22307,-4.23714 -0.22922,-0.0234 -1.94173,1.44838 -2.19002,2.35879 -0.24829,0.91041 -0.65887,4.90378 -0.65887,4.90378 0,0 -4.18672,2.19714 -3.93842,3.27307 0.24829,1.07594 -0.65565,4.96262 -1.235,5.21092 -0.57935,0.24829 -4.93547,4.87469 -6.508,4.87469 -1.57252,0 -18.24007,5.17831 -24.50988,9.4888 -6.26983,4.31051 -14.69068,13.53063 -14.69068,14.31436 0,0.78373 5.2242,-3.55646 15.08251,-3.14569 18.80945,0.78372 37.01759,15.60094 42.32104,21.16051 2.52924,2.6514 2.71765,58.11674 2.71765,58.11674 l 0.57224,2.97107 0.57094,-3.04025 c 0,0 0.1884,-55.46599 2.71764,-58.11739 5.30344,-5.55957 23.51223,-20.37678 42.32169,-21.16052 9.85832,-0.41075 15.0825,3.93008 15.0825,3.14634 0,-0.78372 -8.42086,-10.00385 -14.69066,-14.31435 -6.26983,-4.31049 -22.93801,-9.48945 -24.51053,-9.48945 -1.57253,0 -5.92864,-4.62639 -6.508,-4.87469 -0.57935,-0.24829 -1.48266,-4.13434 -1.23437,-5.21027 0.24828,-1.07594 -3.93907,-3.27372 -3.93907,-3.27372 0,0 -0.41057,-3.99273 -0.65886,-4.90314 -0.2483,-0.91041 -1.96082,-2.38287 -2.19004,-2.35944 z"
       sodipodi:nodetypes="scsccscsscssssssscccssssssscss"
       inkscape:export-filename="mantaray_logo.svg"
       inkscape:export-xdpi="96"
       inkscape:export-ydpi="96" /><path
       style="fill:#000000;stroke-width:0.029979;stroke-dasharray:none"
       d="m 562.33562,565.69345 c -0.27106,-0.50411 -0.42043,-1.15741 -0.33191,-1.45179 0.20959,-0.69721 -6.72692,-13.67582 -7.42062,-13.88436 -0.87256,-0.26231 -1.86606,-2.08348 -1.60689,-2.94559 0.79259,-2.63651 5.57445,-3.36233 11.1536,-1.6929 3.30398,0.98864 3.30398,0.98864 4.1444,-1.8109 0.85072,-2.82983 2.71762,-6.13238 4.03063,-7.12514 0.7744,-0.58554 1.79724,0.15064 1.29059,0.9289 -0.20188,0.31011 -0.47971,0.74127 -0.61735,0.95815 -0.76875,1.21102 -1.69813,2.28776 -1.8043,2.09034 -0.0671,-0.12486 -0.13173,0.0306 -0.14351,0.34532 -0.0119,0.31476 -0.39909,1.4449 -0.86069,2.51135 -0.97748,2.25824 -1.08385,4.00475 -0.26755,4.39267 0.48625,0.23109 0.56919,0.0535 1.34557,-2.88245 1.27866,-4.83523 3.96918,-7.81776 8.06517,-8.94035 0.91655,-0.2512 0.94195,-0.28756 0.43997,-0.6305 -0.54102,-0.36963 -2.18022,-0.21757 -3.33736,0.30961 -0.34172,0.15566 -0.79695,0.1471 -1.01171,-0.019 -1.34426,-1.03992 2.40229,-2.92563 4.53741,-2.28376 2.86848,0.86233 2.61485,3.7602 -0.39754,4.5434 -0.96271,0.25028 -0.96271,0.25028 2.33535,6.37348 1.8139,3.36775 3.35556,6.07672 3.42591,6.01993 2.36964,-1.91281 2.24099,-2.98734 -0.98394,-8.22063 -0.73253,-1.18871 -0.57001,-2.31892 0.32163,-2.22588 0.26819,0.0279 1.24444,1.38666 2.20702,3.07177 1.94553,3.40587 2.00165,3.40454 2.50514,-0.0593 0.41681,-2.86815 0.34398,-3.00756 -2.12184,-4.05806 -3.81647,-1.62589 -2.54941,-5.8976 1.39757,-4.71105 1.27722,0.38395 1.27722,0.38395 2.61776,-3.51741 1.87521,-5.45753 4.79537,-8.65407 7.23556,-7.92048 0.94229,0.28326 1.96357,2.26641 1.58435,3.07643 -0.39417,0.842 6.42379,13.41797 7.44007,13.72348 0.87955,0.26441 1.70327,1.08228 1.37926,1.36948 -0.13779,0.12211 -0.11378,0.26314 0.0535,0.31342 0.45834,0.1378 -0.17493,1.90486 -0.88273,2.46304 -1.76496,1.39188 -6.99184,1.84473 -7.62843,0.66091 -0.37151,-0.69087 0.49769,-1.27207 1.70678,-1.14126 1.87572,0.20294 4.85518,-0.64393 5.09712,-1.44879 0.1356,-0.45101 -0.58773,-0.74444 -0.97937,-0.39732 -0.14743,0.13066 -0.3822,0.1088 -0.52175,-0.0486 -0.14229,-0.16053 -0.21178,-0.12949 -0.15821,0.0707 0.42078,1.5719 -7.8928,-0.23562 -12.14696,-2.64098 -5.12718,-2.89898 -5.61271,-3.09838 -6.44909,-2.64862 -0.74663,0.40147 -0.74661,0.40153 0.87164,1.08102 0.89007,0.37373 2.81415,1.38754 4.27579,2.2529 1.46156,0.86536 3.34107,1.87658 4.17663,2.24714 3.17071,1.40618 2.91549,3.1257 -0.27356,1.84287 -0.90548,-0.36425 -1.7538,-0.56706 -1.88504,-0.45069 -0.13133,0.11638 -0.0956,0.25463 0.0795,0.30729 0.46135,0.13867 -1.25254,5.33168 -2.02076,6.12296 -0.33199,0.34197 -0.47117,0.58631 -0.30924,0.54299 0.16182,-0.0434 0.14973,0.15811 -0.0269,0.44765 -0.17669,0.28954 -0.43066,0.40292 -0.56448,0.25193 -0.13392,-0.15108 -0.19973,-0.11157 -0.14633,0.0878 0.12745,0.47622 -0.46649,1.23393 -0.73223,0.93409 -0.11365,-0.1282 -0.18818,0.0142 -0.16563,0.31641 0.0275,0.37029 -0.0472,0.44986 -0.22986,0.24394 -0.18251,-0.20591 -0.25748,-0.12637 -0.22988,0.24394 0.0276,0.3703 -0.0472,0.44987 -0.22985,0.24395 -0.1654,-0.18664 -0.25975,-0.14362 -0.24234,0.11053 0.0412,0.60201 -1.6431,2.02604 -1.96572,1.66201 -0.14858,-0.16763 -0.22618,-0.15055 -0.17549,0.0387 0.3059,1.14291 -7.71512,3.00377 -8.60749,1.99692 -0.14047,-0.15846 -0.19818,-0.10822 -0.13725,0.11947 0.0772,0.28837 -0.77051,0.12979 -3.18266,-0.59534 -2.65769,-0.79897 -3.34435,-0.91539 -3.58257,-0.60745 -0.16209,0.20954 -0.16957,0.4186 -0.0165,0.46457 0.36672,0.1103 -0.77428,3.87728 -1.4346,4.73636 -1.24081,1.6142 -1.51012,0.39472 -0.7031,-3.18364 0.46089,-2.0436 0.64932,-3.48679 0.48079,-3.68192 -0.47364,-0.54829 -0.91216,-0.54699 -1.24815,0.003 -0.17752,0.29099 -0.19957,0.56609 -0.0492,0.61131 0.56657,0.17032 -1.74199,6.71385 -2.77118,7.85483 -0.5196,0.57605 -1.0179,0.96485 -1.10725,0.86403 -0.0894,-0.10081 -0.23562,0.0309 -0.32504,0.29267 -0.0893,0.26177 -0.27037,0.64649 -0.4023,0.85487 -0.61166,0.96634 0.68611,0.72228 2.03901,-0.38343 1.6398,-1.34021 2.74261,-1.40641 2.39372,-0.14367 -0.24747,0.89553 -1.31374,1.86186 -1.64364,1.48961 -0.14309,-0.16142 -0.20033,-0.11122 -0.13807,0.12117 0.43219,1.61463 -3.55084,1.74246 -4.41169,0.14159 z m 3.77833,0.49552 c 0.0238,-0.0789 -0.0215,-0.16297 -0.10034,-0.1867 -0.0789,-0.0237 -0.16301,0.0214 -0.18675,0.10035 -0.0238,0.0789 0.0215,0.16296 0.10046,0.18671 0.0789,0.0237 0.16295,-0.0214 0.18669,-0.10046 z m -1.83796,-4.40574 c 2.22361,-2.23244 -2.43043,-12.25007 -5.59403,-12.04098 -2.01628,0.13325 -1.97411,0.26875 2.70155,8.68549 2.19541,3.95213 2.24311,4.00741 2.89248,3.35549 z m 2.83474,-8.24706 c 0.0345,-1.18692 -0.0238,-1.27057 -1.2695,-1.82332 -0.71813,-0.31864 -1.644,-0.74245 -2.05752,-0.94184 -1.09514,-0.52804 -1.03327,-0.30581 0.82777,2.97376 1.84005,3.24255 2.40053,3.19576 2.49925,-0.2086 z m -7.15511,-5.59983 c 3.00603,0.25942 6.93751,1.86633 11.50773,4.70355 8.9592,5.56196 18.72748,1.62469 20.88951,-8.41984 0.41363,-1.9217 0.25959,-2.45551 -0.80053,-2.77422 -0.42537,-0.12786 -0.49347,-0.0795 -0.26288,0.18678 0.17122,0.19767 0.16914,0.72313 -0.005,1.16773 -0.17374,0.44457 -0.28795,1.05219 -0.25339,1.35034 0.0535,0.46442 -0.40087,1.6942 -1.49178,4.03703 -0.1407,0.30206 -0.3231,0.71337 -0.40537,0.91401 -0.0827,0.2014 -0.27048,0.22843 -0.41946,0.0603 -0.17459,-0.19696 -0.22972,-0.15423 -0.15599,0.12099 0.13308,0.49728 -0.93103,1.67228 -1.21961,1.34669 -0.10775,-0.12155 -0.17743,0.0263 -0.15491,0.32851 0.0308,0.41289 -0.0427,0.46018 -0.29557,0.19025 -0.18506,-0.19756 -0.27491,-0.22916 -0.19966,-0.0701 0.21009,0.44352 -0.73213,1.24623 -1.05836,0.90161 -0.15672,-0.16564 -0.21942,-0.16365 -0.13923,0.005 0.19323,0.40505 -1.41981,1.32655 -1.72312,0.98435 -0.12968,-0.14638 -0.19527,-0.11459 -0.14571,0.0707 0.11377,0.42469 -2.13538,0.79437 -2.47832,0.40739 -0.15153,-0.17097 -0.21145,-0.128 -0.14869,0.10671 0.0977,0.36494 -0.34092,0.38213 -1.31263,0.0514 -0.19351,-0.0659 -0.31818,0.006 -0.2769,0.16039 0.29315,1.09523 -5.48483,-1.00124 -9.32294,-3.38275 -3.5882,-2.22639 -9.77933,-4.17028 -12.20649,-3.83257 -0.83976,0.11682 -1.58544,0.13707 -1.657,0.045 -0.0716,-0.0921 -0.0969,-0.0718 -0.056,0.045 0.0407,0.11685 -0.33857,0.45484 -0.8429,0.7511 -1.38697,0.81469 -0.67092,1.23853 1.32949,0.78693 0.92869,-0.20968 2.41612,-0.31842 3.30548,-0.24168 z m 25.20205,8.01234 c 0.0235,-0.0789 -0.0215,-0.16296 -0.10046,-0.18669 -0.0789,-0.0237 -0.16298,0.0214 -0.18671,0.10034 -0.0238,0.0789 0.0215,0.16297 0.10046,0.1867 0.0789,0.0237 0.16298,-0.0214 0.18672,-0.10035 z m -7.69146,-5.0809 c -0.8626,-2.29468 0.4662,-2.82966 1.63401,-0.65787 0.9729,1.80931 1.19495,1.93013 2.94118,1.60051 1.3763,-0.25976 -2.71723,-10.03621 -5.1591,-12.32137 -1.3875,-1.29846 -2.22444,2.2451 -1.05379,4.4613 1.04439,1.97707 1.22884,2.57712 0.92758,3.018 -0.53637,0.78519 -0.82029,0.59617 -2.10645,-1.40269 -1.20739,-1.87639 -2.47578,-0.41829 -2.2387,2.57355 0.0461,0.58098 -0.0222,1.15015 -0.15144,1.26481 -0.25187,0.22321 2.24408,1.44914 4.71575,2.3162 0.93475,0.3279 0.93475,0.3279 0.49103,-0.85243 z m 19.86239,-14.57856 c -1.59666,-2.72626 -1.79079,-2.94883 -2.1114,-2.42112 -0.19419,0.31962 -0.25523,0.70058 -0.13576,0.84658 0.11962,0.14601 0.0479,0.62792 -0.15946,1.0709 -0.60478,1.29216 0.34588,2.31841 2.87659,3.1053 1.28827,0.40059 1.28827,0.40059 -0.47008,-2.60167 z m 6.03531,3.91921 c 1.69416,-0.0735 1.67528,-0.14389 -1.72942,-6.46301 -3.42171,-6.35079 -3.40866,-6.33331 -3.99473,-5.35091 -0.21721,0.36396 -0.48765,0.55708 -0.60101,0.42916 -0.11342,-0.12793 -0.19012,-0.0177 -0.17055,0.24491 0.0195,0.26264 -0.14921,0.65618 -0.37506,0.87455 -0.32963,0.31874 0.0837,1.33938 2.09609,5.17598 2.61314,4.98193 2.79449,5.17523 4.77468,5.08932 z m -9.77884,-6.72457 c 0.83069,-3.53332 2.35954,-6.46497 3.89515,-7.46947 0.76783,-0.50225 0.87236,-0.67795 0.62497,-1.0506 -0.32559,-0.49047 -1.93802,0.3493 -2.63803,1.37392 -0.19707,0.28852 -0.44412,0.42784 -0.54893,0.3096 -0.10486,-0.11824 -0.23287,-0.0531 -0.28467,0.14466 -0.25378,0.96935 -0.60107,1.63808 -0.75849,1.46046 -0.0964,-0.10879 -0.63765,1.34018 -1.20272,3.21996 -0.56517,1.87975 -0.91678,3.45104 -0.78147,3.49171 0.1353,0.0406 0.11891,0.23827 -0.0363,0.43913 -0.18185,0.23506 -0.0714,0.47615 0.31084,0.67689 0.32631,0.17148 0.61907,0.33869 0.65059,0.37162 0.0315,0.0329 0.37747,-1.30267 0.76917,-2.96788 z m -14.80559,-4.64232 c -0.98204,-1.88737 -1.44758,-3.12974 -1.28744,-3.43562 0.35306,-0.67446 1.20369,-0.50441 1.62611,0.32511 2.46601,4.84266 2.62804,5.25182 2.28072,5.76018 -0.59203,0.86656 -1.00972,0.44404 -2.61939,-2.64967 z m 7.4285,3.14423 c -0.35946,-0.66857 3.52609,-6.43528 4.19969,-6.23278 0.8315,0.24996 0.99221,1.08506 0.33778,1.75533 -0.36165,0.37044 -0.52505,0.63807 -0.3632,0.59474 0.16189,-0.0434 0.14977,0.15811 -0.0268,0.44765 -0.17662,0.28954 -0.43062,0.40292 -0.56449,0.25193 -0.13385,-0.15106 -0.19966,-0.11157 -0.14626,0.0878 0.11562,0.43217 -0.45514,1.24675 -0.68886,0.98303 -0.0897,-0.10127 -0.25082,0.20223 -0.35781,0.67449 -0.30735,1.35561 -1.91424,2.32238 -2.38993,1.43779 z m -3.04751,-2.07231 c 0.0192,-3.87977 0.456,-6.98225 1.004,-7.12897 0.53015,-0.14192 1.377,0.87553 1.06468,1.27922 -0.15378,0.19882 -0.13964,0.40358 0.0321,0.45517 0.17135,0.0515 0.16638,0.3316 -0.0104,0.62244 -0.17742,0.29084 -0.22203,0.64208 -0.0995,0.78041 0.12265,0.13838 0.13209,0.45832 0.0208,0.71096 -0.11111,0.25267 -0.16192,0.86798 -0.11296,1.36738 0.1597,1.6289 -0.4991,2.88176 -1.37654,2.61798 -0.28828,-0.0867 -0.52293,-0.40373 -0.52148,-0.70459 z"
       id="path239" /></g></svg>
